<?xml version="1.0" encoding="utf-8"?><svg viewBox="0 0 61 43" xmlns="http://www.w3.org/2000/svg" xmlns:xlink="http://www.w3.org/1999/xlink"><style>:root>svg{display:none}:root>svg:target{display:block}</style><svg fill="none" viewBox="0 0 12 8" id="angle-down" xmlns="http://www.w3.org/2000/svg"><path d="M11 1.17a1 1 0 00-1.41 0L6 4.71 2.46 1.17a1 1 0 10-1.41 1.42l4.24 4.24a1 1 0 001.42 0L11 2.59a1 1 0 000-1.42z" fill="#003458"/></svg><svg fill="none" viewBox="0 0 16 18" id="arrow" xmlns="http://www.w3.org/2000/svg"><path d="M15.893 8.493a1.332 1.332 0 00-.28-.44L8.947 1.387A1.339 1.339 0 007.053 3.28l4.4 4.387H1.333a1.333 1.333 0 000 2.666h10.12l-4.4 4.387a1.333 1.333 0 000 1.893 1.333 1.333 0 001.894 0l6.666-6.666c.122-.127.217-.277.28-.44a1.333 1.333 0 000-1.014z" fill="#003458"/></svg><svg fill="none" viewBox="0 0 32 32" id="check-circle" xmlns="http://www.w3.org/2000/svg"><path d="M19.627 11.72l-5.72 5.733-2.2-2.2a1.334 1.334 0 10-1.88 1.88l3.133 3.147a1.336 1.336 0 001.88 0l6.667-6.667a1.332 1.332 0 000-1.893 1.333 1.333 0 00-1.88 0zM16 2.667a13.333 13.333 0 100 26.666 13.333 13.333 0 000-26.666zm0 24A10.668 10.668 0 1116 5.33a10.668 10.668 0 010 21.336z" fill="#fff"/></svg><svg fill="none" viewBox="0 0 24 24" id="home-alt" xmlns="http://www.w3.org/2000/svg"><path d="M20 8l-6-5.26a3 3 0 00-4 0L4 8a3 3 0 00-1 2.26V19a3 3 0 003 3h12a3 3 0 003-3v-8.75A3 3 0 0020 8zm-6 12h-4v-5a1 1 0 011-1h2a1 1 0 011 1v5zm5-1a1 1 0 01-1 1h-2v-5a3 3 0 00-3-3h-2a3 3 0 00-3 3v5H6a1 1 0 01-1-1v-8.75a1 1 0 01.34-.75l6-5.25a1 1 0 011.32 0l6 5.25a1.002 1.002 0 01.34.75V19z" fill="#BDBDBD"/></svg><svg fill="none" viewBox="0 0 24 24" id="location-point" xmlns="http://www.w3.org/2000/svg"><path d="M18 4.48a8.485 8.485 0 00-12 12l5.27 5.28a1.002 1.002 0 001.42 0L18 16.43a8.45 8.45 0 000-11.95zM16.57 15L12 19.59 7.43 15a6.46 6.46 0 119.14 0zM9 7.41a4.32 4.32 0 000 6.1 4.31 4.31 0 007.36-3 4.24 4.24 0 00-1.26-3.05A4.3 4.3 0 009 7.41zm4.69 4.68a2.33 2.33 0 11.67-1.63 2.33 2.33 0 01-.72 1.63h.05z" fill="#BDBDBD"/></svg><svg fill="none" viewBox="0 0 61 43" id="quotes" xmlns="http://www.w3.org/2000/svg"><path d="M14.375 0C5 8.475 0 17.45 0 25.675 0 35.771 5.5 43 13.375 43 20.25 43 26 37.142 26 30.038c0-6.855-5.625-12.713-12.375-12.713 1.125-4.113 4-8.351 8-11.84l-7.25-5.485zm35 0C40 8.475 35 17.45 35 25.675 35 35.771 40.5 43 48.375 43 55.25 43 61 37.142 61 30.038c0-6.855-5.625-12.713-12.375-12.713 1.125-4.113 4-8.351 8-11.84l-7.25-5.485z" fill="#82CDE5"/></svg></svg>