<svg width="311" height="61" viewBox="0 0 311 61" fill="none" xmlns="http://www.w3.org/2000/svg">
<circle cx="23" cy="23" r="23" fill="#82CDE5"/>
<path d="M17.48 61H38.664C53.512 61 63.688 52.36 63.688 38.6C63.688 24.84 53.512 16.2 38.664 16.2H17.48V61ZM30.152 50.888V26.312H38.152C45.768 26.312 50.888 30.856 50.888 38.6C50.888 46.344 45.768 50.888 38.152 50.888H30.152Z" fill="#003458"/>
<path d="M98.707 61H112.275L102.611 46.92C108.179 44.232 111.379 39.368 111.379 32.776C111.379 22.536 103.699 16.2 91.475 16.2H70.995V61H83.667V49.096H90.579L98.707 61ZM98.579 32.776C98.579 36.872 95.955 39.304 90.707 39.304H83.667V26.184H90.707C95.955 26.184 98.579 28.616 98.579 32.776Z" fill="#003458"/>
<path d="M131.554 51.208V43.016H151.458V33.544H131.554V25.992H154.146V16.2H119.01V61H154.978V51.208H131.554Z" fill="#003458"/>
<path d="M196.186 61H209.37L189.53 16.2H177.05L157.274 61H170.202L173.722 52.296H192.666L196.186 61ZM177.434 42.952L183.194 28.616L188.954 42.952H177.434Z" fill="#003458"/>
<path d="M265.698 61L265.57 16.2H255.138L239.778 42.056L224.034 16.2H213.602V61H225.314V37.896L236.77 56.584H242.402L253.922 37.256L254.05 61H265.698Z" fill="#003458"/>
<path d="M288.248 28.9999H291.326V19.3879H295.07V16.6339H284.486V19.3879H288.248V28.9999Z" fill="#003458"/>
<path d="M296.935 28.9999H300.013V21.8359L303.577 28.2799L307.141 21.8359V28.9999H310.219V16.6339H307.141L303.577 23.0779L300.013 16.6339H296.935V28.9999Z" fill="#003458"/>
</svg>
