<svg xmlns="http://www.w3.org/2000/svg" viewBox="0 0 32 32"><path d="M11.191 27.65c1.526.63 3.143.95 4.809.95l.014 1.8H16a14.32 14.32 0 01-5.495-1.085zm13.723-2.745l1.273 1.272a14.334 14.334 0 01-4.665 3.126l-.69-1.662a12.56 12.56 0 004.082-2.736zM4.363 20.843a12.57 12.57 0 002.74 4.08l-1.27 1.275a14.367 14.367 0 01-3.131-4.662zM30.4 15.945V16c0 1.907-.368 3.76-1.092 5.509l-1.663-.69A12.52 12.52 0 0028.6 16zM2.68 10.52l1.664.685A12.535 12.535 0 003.4 16l-1.8.028V16c0-1.897.363-3.741 1.08-5.481zm23.466-4.738a14.36 14.36 0 013.139 4.655l-1.66.697a12.571 12.571 0 00-2.748-4.074zM10.45 2.708l.694 1.661a12.541 12.541 0 00-4.077 2.744L5.79 5.843a14.369 14.369 0 014.66-3.135zM15.958 1.6H16c1.892 0 3.731.362 5.468 1.075l-.684 1.665A12.525 12.525 0 0016 3.4z" fill="#a8a4a4"><animateTransform attributeName="transform" attributeType="XML" type="rotate" from="0, 16, 16" to="360, 16, 16" dur="1.5s" repeatCount="indefinite"/></path></svg>